<svg xmlns="http://www.w3.org/2000/svg" viewBox="0 0 440 440" width="440" height="440" role="img" aria-label="Six tetrahedra exploded apart, the scissors-congruent decomposition of a unit cube">
  <defs>
    <linearGradient id="hcA" x1="0" y1="0" x2="1" y2="1">
      <stop offset="0%" stop-color="#A8E8E8"/>
      <stop offset="100%" stop-color="#4ACECC"/>
    </linearGradient>
    <linearGradient id="hcB" x1="0" y1="0" x2="1" y2="1">
      <stop offset="0%" stop-color="#7ADBDD"/>
      <stop offset="100%" stop-color="#03B0AD"/>
    </linearGradient>
    <linearGradient id="hcC" x1="0" y1="0" x2="1" y2="1">
      <stop offset="0%" stop-color="#4ACECC"/>
      <stop offset="100%" stop-color="#0C8698"/>
    </linearGradient>
    <linearGradient id="hcD" x1="0" y1="1" x2="1" y2="0">
      <stop offset="0%" stop-color="#0C8698"/>
      <stop offset="100%" stop-color="#03B0AD"/>
    </linearGradient>
    <linearGradient id="hcE" x1="0" y1="0" x2="1" y2="1">
      <stop offset="0%" stop-color="#03B0AD"/>
      <stop offset="100%" stop-color="#07606F"/>
    </linearGradient>
    <linearGradient id="hcF" x1="0" y1="1" x2="1" y2="0">
      <stop offset="0%" stop-color="#7ADBDD"/>
      <stop offset="100%" stop-color="#0C8698"/>
    </linearGradient>
  </defs>
  <g stroke="#ffffff" stroke-width="3" stroke-linejoin="round" stroke-linecap="round">
    <!-- top-front-left piece -->
    <polygon points="158,108 232,86 196,162 138,178" fill="url(#hcA)"/>
    <!-- top-back-right piece -->
    <polygon points="246,76 322,128 282,164 224,144" fill="url(#hcB)"/>
    <!-- right-mid piece -->
    <polygon points="318,176 372,222 322,272 290,222" fill="url(#hcC)"/>
    <!-- bottom-front-right piece -->
    <polygon points="248,278 304,308 258,366 218,322" fill="url(#hcD)"/>
    <!-- bottom-front-left piece -->
    <polygon points="116,272 188,260 198,330 134,344" fill="url(#hcE)"/>
    <!-- left-mid piece -->
    <polygon points="76,178 142,196 158,254 92,250" fill="url(#hcF)"/>
  </g>
</svg>
